<svg xmlns="http://www.w3.org/2000/svg" xmlns:v="https://svgstorm.com"
viewBox = "0 0 294 294"
width="294"
height="294">
<g fill="None" fill-opacity="0.0" stroke="#000000" stroke-opacity="0.00" stroke-width="0.3"><path d="
M 0.00 294.00 
L 294.00 294.00
L 294.00 0.00
L 0.00 0.00
L 0.00 294.00
M 24.00 165.00 
C 24.77 163.37 27.74 160.37 29.00 162.00
C 29.83 161.59 30.87 161.03 31.00 160.00
C 31.77 158.37 34.74 155.37 36.00 157.00
C 36.28 156.77 36.81 156.32 37.00 156.00
C 38.63 153.64 42.80 149.98 45.00 151.00
C 86.15 125.70 127.75 99.52 172.00 81.00
C 176.07 78.89 182.81 75.67 187.00 77.00
C 187.35 76.93 187.75 76.25 188.00 76.00
C 189.26 75.12 192.75 72.78 194.00 75.00
C 223.74 65.87 255.47 64.08 287.00 62.00
C 290.09 97.45 280.75 131.49 255.25 156.25 C 203.58 191.50 148.72 223.21 90.31 245.31 C 75.31 248.65 62.69 232.36 48.92 227.08 C 35.13 219.63 22.00 210.76 8.00 204.00
C 8.22 195.14 7.56 186.07 8.33 177.33 C 13.35 173.08 19.10 169.16 24.00 165.00 Z"/>
</g>
<g fill="None" fill-opacity="0.0" stroke="#000000" stroke-opacity="1.00" stroke-width="0.3"><path d="
M 194.00 75.00 
C 191.77 74.48 190.27 76.54 188.00 76.00
C 187.75 76.25 187.35 76.93 187.00 77.00
C 181.73 77.32 177.30 80.67 172.00 81.00
C 127.75 99.52 86.15 125.70 45.00 151.00
C 42.29 152.69 39.92 154.72 37.00 156.00
C 36.81 156.32 36.28 156.77 36.00 157.00
C 34.07 157.66 33.33 160.39 31.00 160.00
C 30.87 161.03 29.83 161.59 29.00 162.00
C 27.33 163.11 25.87 164.30 24.00 165.00
C 19.10 169.16 13.35 173.08 8.33 177.33 C 7.56 186.07 8.22 195.14 8.00 204.00
C 22.00 210.76 35.13 219.63 48.92 227.08 C 62.69 232.36 75.31 248.65 90.31 245.31 C 148.72 223.21 203.58 191.50 255.25 156.25 C 280.75 131.49 290.09 97.45 287.00 62.00
C 255.47 64.08 223.74 65.87 194.00 75.00
M 276.00 83.00 
C 272.85 107.68 250.89 125.91 232.00 140.00
C 212.88 128.91 193.10 118.25 175.00 106.00
C 168.04 102.96 160.85 98.71 155.00 94.00
C 193.32 77.99 233.65 66.94 277.00 69.00
C 276.36 73.50 278.30 79.33 276.00 83.00
M 147.00 119.00 
C 167.26 131.16 189.80 142.21 208.00 156.00
C 191.43 163.57 175.98 174.07 159.00 181.00
C 140.27 168.65 120.41 157.50 101.00 146.00
C 94.91 141.56 87.87 138.34 82.00 134.00
C 92.20 127.23 103.19 120.92 114.08 115.08 C 124.87 103.80 136.64 111.55 147.00 119.00
M 75.00 161.00 
C 93.87 171.25 114.41 182.38 131.00 195.00
C 119.86 199.04 109.22 204.54 98.31 209.31 C 87.12 218.64 76.77 210.98 66.31 204.69 C 56.34 198.56 46.13 192.88 36.00 187.00
C 30.78 183.76 25.57 180.31 20.00 178.00
C 26.30 169.34 37.58 163.93 46.08 157.08 C 54.84 145.01 66.40 154.62 75.00 161.00 Z"/>
</g>
<g fill="None" fill-opacity="0.0" stroke="#535457" stroke-opacity="1.00" stroke-width="0.3"><path d="
M 175.00 106.00 
C 194.78 95.99 216.13 87.74 238.01 83.01 C 249.55 80.75 266.31 76.77 276.00 83.00
C 278.30 79.33 276.36 73.50 277.00 69.00
C 233.65 66.94 193.32 77.99 155.00 94.00
C 160.85 98.71 168.04 102.96 175.00 106.00 Z"/>
</g>
<g fill="None" fill-opacity="0.0" stroke="#535457" stroke-opacity="0.33" stroke-width="0.3"><path d="
M 188.00 76.00 
C 190.27 76.54 191.77 74.48 194.00 75.00
C 192.75 72.78 189.26 75.12 188.00 76.00 Z"/>
</g>
<g fill="None" fill-opacity="0.0" stroke="#535457" stroke-opacity="0.42" stroke-width="0.3"><path d="
M 172.00 81.00 
C 177.30 80.67 181.73 77.32 187.00 77.00
C 182.81 75.67 176.07 78.89 172.00 81.00 Z"/>
</g>
<g fill="None" fill-opacity="0.0" stroke="#767A7B" stroke-opacity="1.00" stroke-width="0.3"><path d="
M 175.00 106.00 
C 193.10 118.25 212.88 128.91 232.00 140.00
C 250.89 125.91 272.85 107.68 276.00 83.00
C 266.31 76.77 249.55 80.75 238.01 83.01 C 216.13 87.74 194.78 95.99 175.00 106.00 Z"/>
</g>
<g fill="None" fill-opacity="0.0" stroke="#535457" stroke-opacity="1.00" stroke-width="0.3"><path d="
M 101.00 146.00 
C 114.71 134.90 132.12 128.18 147.00 119.00
C 136.64 111.55 124.87 103.80 114.08 115.08 C 103.19 120.92 92.20 127.23 82.00 134.00
C 87.87 138.34 94.91 141.56 101.00 146.00 Z"/>
</g>
<g fill="None" fill-opacity="0.0" stroke="#767A7B" stroke-opacity="1.00" stroke-width="0.3"><path d="
M 101.00 146.00 
C 120.41 157.50 140.27 168.65 159.00 181.00
C 175.98 174.07 191.43 163.57 208.00 156.00
C 189.80 142.21 167.26 131.16 147.00 119.00
C 132.12 128.18 114.71 134.90 101.00 146.00 Z"/>
</g>
<g fill="None" fill-opacity="0.0" stroke="#535457" stroke-opacity="0.37" stroke-width="0.3"><path d="
M 37.00 156.00 
C 39.92 154.72 42.29 152.69 45.00 151.00
C 42.80 149.98 38.63 153.64 37.00 156.00 Z"/>
</g>
<g fill="None" fill-opacity="0.0" stroke="#535457" stroke-opacity="1.00" stroke-width="0.3"><path d="
M 36.00 187.00 
C 46.86 176.93 62.01 169.00 75.00 161.00
C 66.40 154.62 54.84 145.01 46.08 157.08 C 37.58 163.93 26.30 169.34 20.00 178.00
C 25.57 180.31 30.78 183.76 36.00 187.00 Z"/>
</g>
<g fill="None" fill-opacity="0.0" stroke="#535457" stroke-opacity="0.24" stroke-width="0.3"><path d="
M 31.00 160.00 
C 33.33 160.39 34.07 157.66 36.00 157.00
C 34.74 155.37 31.77 158.37 31.00 160.00 Z"/>
</g>
<g fill="None" fill-opacity="0.0" stroke="#535457" stroke-opacity="0.33" stroke-width="0.3"><path d="
M 24.00 165.00 
C 25.87 164.30 27.33 163.11 29.00 162.00
C 27.74 160.37 24.77 163.37 24.00 165.00 Z"/>
</g>
<g fill="None" fill-opacity="0.0" stroke="#767A7B" stroke-opacity="1.00" stroke-width="0.3"><path d="
M 36.00 187.00 
C 46.13 192.88 56.34 198.56 66.31 204.69 C 76.77 210.98 87.12 218.64 98.31 209.31 C 109.22 204.54 119.86 199.04 131.00 195.00
C 114.41 182.38 93.87 171.25 75.00 161.00
C 62.01 169.00 46.86 176.93 36.00 187.00 Z"/>
</g>
<g fill="#000000" fill-opacity="0.00" stroke="None">
<path d="
M 0.00 294.00 
L 294.00 294.00
L 294.00 0.00
L 0.00 0.00
L 0.00 294.00
M 24.00 165.00 
C 24.77 163.37 27.74 160.37 29.00 162.00
C 29.83 161.59 30.87 161.03 31.00 160.00
C 31.77 158.37 34.74 155.37 36.00 157.00
C 36.28 156.77 36.81 156.32 37.00 156.00
C 38.63 153.64 42.80 149.98 45.00 151.00
C 86.15 125.70 127.75 99.52 172.00 81.00
C 176.07 78.89 182.81 75.67 187.00 77.00
C 187.35 76.93 187.75 76.25 188.00 76.00
C 189.26 75.12 192.75 72.78 194.00 75.00
C 223.74 65.87 255.47 64.08 287.00 62.00
C 290.09 97.45 280.75 131.49 255.25 156.25 C 203.58 191.50 148.72 223.21 90.31 245.31 C 75.31 248.65 62.69 232.36 48.92 227.08 C 35.13 219.63 22.00 210.76 8.00 204.00
C 8.22 195.14 7.56 186.07 8.33 177.33 C 13.35 173.08 19.10 169.16 24.00 165.00 Z"/>
</g>
<g fill="#000000" fill-opacity="1.00" stroke="None">
<path d="
M 194.00 75.00 
C 191.77 74.48 190.27 76.54 188.00 76.00
C 187.75 76.25 187.35 76.93 187.00 77.00
C 181.73 77.32 177.30 80.67 172.00 81.00
C 127.75 99.52 86.15 125.70 45.00 151.00
C 42.29 152.69 39.92 154.72 37.00 156.00
C 36.81 156.32 36.28 156.77 36.00 157.00
C 34.07 157.66 33.33 160.39 31.00 160.00
C 30.87 161.03 29.83 161.59 29.00 162.00
C 27.33 163.11 25.87 164.30 24.00 165.00
C 19.10 169.16 13.35 173.08 8.33 177.33 C 7.56 186.07 8.22 195.14 8.00 204.00
C 22.00 210.76 35.13 219.63 48.92 227.08 C 62.69 232.36 75.31 248.65 90.31 245.31 C 148.72 223.21 203.58 191.50 255.25 156.25 C 280.75 131.49 290.09 97.45 287.00 62.00
C 255.47 64.08 223.74 65.87 194.00 75.00
M 276.00 83.00 
C 272.85 107.68 250.89 125.91 232.00 140.00
C 212.88 128.91 193.10 118.25 175.00 106.00
C 168.04 102.96 160.85 98.71 155.00 94.00
C 193.32 77.99 233.65 66.94 277.00 69.00
C 276.36 73.50 278.30 79.33 276.00 83.00
M 147.00 119.00 
C 167.26 131.16 189.80 142.21 208.00 156.00
C 191.43 163.57 175.98 174.07 159.00 181.00
C 140.27 168.65 120.41 157.50 101.00 146.00
C 94.91 141.56 87.87 138.34 82.00 134.00
C 92.20 127.23 103.19 120.92 114.08 115.08 C 124.87 103.80 136.64 111.55 147.00 119.00
M 75.00 161.00 
C 93.87 171.25 114.41 182.38 131.00 195.00
C 119.86 199.04 109.22 204.54 98.31 209.31 C 87.12 218.64 76.77 210.98 66.31 204.69 C 56.34 198.56 46.13 192.88 36.00 187.00
C 30.78 183.76 25.57 180.31 20.00 178.00
C 26.30 169.34 37.58 163.93 46.08 157.08 C 54.84 145.01 66.40 154.62 75.00 161.00 Z"/>
</g>
<g fill="#535457" fill-opacity="1.00" stroke="None">
<path d="
M 175.00 106.00 
C 194.78 95.99 216.13 87.74 238.01 83.01 C 249.55 80.75 266.31 76.77 276.00 83.00
C 278.30 79.33 276.36 73.50 277.00 69.00
C 233.65 66.94 193.32 77.99 155.00 94.00
C 160.85 98.71 168.04 102.96 175.00 106.00 Z"/>
</g>
<g fill="#535457" fill-opacity="0.33" stroke="None">
<path d="
M 188.00 76.00 
C 190.27 76.54 191.77 74.48 194.00 75.00
C 192.75 72.78 189.26 75.12 188.00 76.00 Z"/>
</g>
<g fill="#535457" fill-opacity="0.42" stroke="None">
<path d="
M 172.00 81.00 
C 177.30 80.67 181.73 77.32 187.00 77.00
C 182.81 75.67 176.07 78.89 172.00 81.00 Z"/>
</g>
<g fill="#767A7B" fill-opacity="1.00" stroke="None">
<path d="
M 175.00 106.00 
C 193.10 118.25 212.88 128.91 232.00 140.00
C 250.89 125.91 272.85 107.68 276.00 83.00
C 266.31 76.77 249.55 80.75 238.01 83.01 C 216.13 87.74 194.78 95.99 175.00 106.00 Z"/>
</g>
<g fill="#535457" fill-opacity="1.00" stroke="None">
<path d="
M 101.00 146.00 
C 114.71 134.90 132.12 128.18 147.00 119.00
C 136.64 111.55 124.87 103.80 114.08 115.08 C 103.19 120.92 92.20 127.23 82.00 134.00
C 87.87 138.34 94.91 141.56 101.00 146.00 Z"/>
</g>
<g fill="#767A7B" fill-opacity="1.00" stroke="None">
<path d="
M 101.00 146.00 
C 120.41 157.50 140.27 168.65 159.00 181.00
C 175.98 174.07 191.43 163.57 208.00 156.00
C 189.80 142.21 167.26 131.16 147.00 119.00
C 132.12 128.18 114.71 134.90 101.00 146.00 Z"/>
</g>
<g fill="#535457" fill-opacity="0.37" stroke="None">
<path d="
M 37.00 156.00 
C 39.92 154.72 42.29 152.69 45.00 151.00
C 42.80 149.98 38.63 153.64 37.00 156.00 Z"/>
</g>
<g fill="#535457" fill-opacity="1.00" stroke="None">
<path d="
M 36.00 187.00 
C 46.86 176.93 62.01 169.00 75.00 161.00
C 66.40 154.62 54.84 145.01 46.08 157.08 C 37.58 163.93 26.30 169.34 20.00 178.00
C 25.57 180.31 30.78 183.76 36.00 187.00 Z"/>
</g>
<g fill="#535457" fill-opacity="0.24" stroke="None">
<path d="
M 31.00 160.00 
C 33.33 160.39 34.07 157.66 36.00 157.00
C 34.74 155.37 31.77 158.37 31.00 160.00 Z"/>
</g>
<g fill="#535457" fill-opacity="0.33" stroke="None">
<path d="
M 24.00 165.00 
C 25.87 164.30 27.33 163.11 29.00 162.00
C 27.74 160.37 24.77 163.37 24.00 165.00 Z"/>
</g>
<g fill="#767A7B" fill-opacity="1.00" stroke="None">
<path d="
M 36.00 187.00 
C 46.13 192.88 56.34 198.56 66.31 204.69 C 76.77 210.98 87.12 218.64 98.31 209.31 C 109.22 204.54 119.86 199.04 131.00 195.00
C 114.41 182.38 93.87 171.25 75.00 161.00
C 62.01 169.00 46.86 176.93 36.00 187.00 Z"/>
</g>
</svg>