<?xml version="1.0" encoding="utf-8"?>
<svg viewBox="276.0033 177.5391 68.8725 70.4407" width="68.8725" height="70.4407" xmlns="http://www.w3.org/2000/svg">
  <g fill="&amp;stroke_color;" id="g6" stroke="none" transform="matrix(0.1000000014901161, 0, 0, -0.1000000014901161, 274.87580164896826, 248.4569471018594)">
    <path d="M 75 701 C 64 696 46 682 35 670 C 16 649 15 632 12 366 C 10 99 11 83 30 52 C 41 34 26.64 44.284 43.64 28.284 C 69.64 4.284 588 -5 638 18 C 697 45 700 59 700 362 C 700 661 699 664 640 695 C 616 707 563 710 353 709 C 211 709 86 705 75 701 Z M 102.457 665 C 118.457 657 660 643 664 635 C 667 626 670 497 670 349 L 662.005 118.976 L 412.692 128.822 L 411.781 157.254 L 572.978 164.2 L 582.169 238.152 L 409.035 242.904 L 407.387 277.165 L 535.642 275.841 L 532.052 363.509 L 405.2 362.513 L 395.994 401.431 L 483.322 394.774 L 492.195 471.258 L 401.672 472.563 L 377.719 598.066 L 337.685 601.437 L 316.128 482.527 L 266.499 483.248 L 266.858 410.223 L 320.15 411.384 L 313.172 362.022 L 213.733 360.014 L 215.893 265.281 L 313.549 268.537 L 303.948 240.599 L 163.049 236.785 L 141.275 162.417 L 304.121 166.474 L 299.519 132.991 L 89.625 126.807 C 89.625 126.807 80.457 677 102.457 665 Z" id="path8"/>
  </g>
</svg>